<svg xmlns="http://www.w3.org/2000/svg" xmlns:xlink="http://www.w3.org/1999/xlink" version="1.1" width="1000" height="1000" viewBox="0 0 1000 1000" xml:space="preserve">
<desc>Created with Fabric.js 3.5.0</desc>
<defs>
</defs>
<rect x="0" y="0" width="100%" height="100%" fill="rgba(255,255,255,0)"/>
<g transform="matrix(38.7764 0 0 40.0299 499.9998 472.4957)" id="188623">
<path style="stroke: none; stroke-width: 1; stroke-dasharray: none; stroke-linecap: butt; stroke-dashoffset: 0; stroke-linejoin: miter; stroke-miterlimit: 4; is-custom-font: none; font-file-url: none; fill: rgb(0,0,0); fill-rule: nonzero; opacity: 1;" vector-effect="non-scaling-stroke" transform=" translate(-10, -9.9999)" d="M 16.320312 6.496094 C 16.179688 6.484375 16.074219 6.355469 16.085938 6.210938 C 16.101562 6.066406 16.230469 5.960938 16.375 5.976562 C 16.699219 6.007812 17.003906 6.109375 17.285156 6.277344 C 17.421875 6.359375 17.550781 6.457031 17.675781 6.570312 C 17.730469 6.4375 17.796875 6.308594 17.875 6.191406 C 18.050781 5.9375 18.277344 5.722656 18.542969 5.570312 C 18.667969 5.496094 18.828125 5.539062 18.902344 5.664062 C 18.976562 5.792969 18.929688 5.953125 18.804688 6.023438 C 18.605469 6.136719 18.4375 6.296875 18.308594 6.484375 C 18.183594 6.671875 18.09375 6.894531 18.050781 7.140625 C 18.042969 7.207031 18.007812 7.273438 17.945312 7.316406 C 17.828125 7.402344 17.664062 7.375 17.578125 7.257812 C 17.414062 7.027344 17.222656 6.851562 17.015625 6.726562 C 16.804688 6.597656 16.570312 6.523438 16.320312 6.496094 Z M 6.019531 8.417969 L 6.019531 17.109375 L 7.03125 17.109375 L 8.203125 15.816406 L 7.582031 15.816406 L 7.582031 15.027344 L 9.511719 15.027344 L 7.335938 12.613281 L 7.921875 12.085938 L 9.238281 13.546875 L 9.238281 13.488281 L 12.464844 13.488281 C 12.609375 13.488281 12.734375 13.566406 12.804688 13.675781 L 13.757812 15.027344 L 15.546875 15.027344 C 15.667969 15.027344 15.773438 15.078125 15.847656 15.164062 L 17.808594 17.109375 L 20 17.109375 L 20 17.898438 L 0.113281 17.898438 L 0.113281 17.109375 L 5.40625 17.109375 L 5.40625 8.417969 L 0.308594 8.417969 C 0.136719 8.417969 0 8.28125 0 8.109375 C 0 8.097656 0 8.089844 0 8.078125 C 0.015625 6.542969 0.65625 5.160156 1.679688 4.15625 C 2.695312 3.167969 4.085938 2.546875 5.621094 2.527344 C 5.652344 2.515625 5.683594 2.511719 5.714844 2.511719 C 5.75 2.511719 5.78125 2.515625 5.8125 2.527344 C 7.339844 2.554688 8.71875 3.171875 9.730469 4.15625 C 10.761719 5.167969 11.40625 6.5625 11.410156 8.109375 C 11.410156 8.277344 11.273438 8.414062 11.105469 8.414062 L 11.105469 8.417969 Z M 8.097656 17.109375 L 16.6875 17.109375 L 15.386719 15.820312 L 9.269531 15.820312 Z M 10.574219 15.027344 L 12.789062 15.027344 L 12.261719 14.28125 L 9.902344 14.28125 Z M 13.660156 3.394531 C 13.492188 3.417969 13.339844 3.300781 13.316406 3.132812 C 13.292969 2.964844 13.410156 2.8125 13.578125 2.789062 C 14.109375 2.71875 14.621094 2.78125 15.085938 2.988281 C 15.367188 3.113281 15.625 3.289062 15.859375 3.519531 C 15.984375 3.234375 16.15625 2.984375 16.367188 2.773438 C 16.71875 2.429688 17.167969 2.195312 17.683594 2.105469 C 17.851562 2.078125 18.007812 2.191406 18.039062 2.355469 C 18.066406 2.523438 17.953125 2.683594 17.789062 2.710938 C 17.402344 2.777344 17.0625 2.953125 16.804688 3.210938 C 16.546875 3.464844 16.363281 3.804688 16.285156 4.207031 L 16.28125 4.207031 C 16.269531 4.28125 16.222656 4.355469 16.152344 4.402344 C 16.015625 4.496094 15.824219 4.460938 15.730469 4.320312 C 15.480469 3.953125 15.175781 3.703125 14.835938 3.550781 C 14.480469 3.386719 14.082031 3.339844 13.660156 3.394531 Z M 9.300781 4.597656 C 8.886719 4.1875 8.394531 3.851562 7.855469 3.605469 C 8.0625 3.90625 8.238281 4.25 8.382812 4.628906 C 8.714844 5.507812 8.878906 6.59375 8.894531 7.804688 L 10.785156 7.804688 C 10.703125 6.554688 10.152344 5.429688 9.300781 4.597656 Z M 6.605469 3.21875 C 6.414062 3.183594 6.222656 3.164062 6.023438 3.148438 L 6.023438 7.804688 L 8.28125 7.804688 C 8.269531 6.667969 8.117188 5.65625 7.808594 4.84375 C 7.535156 4.121094 7.140625 3.558594 6.605469 3.21875 Z M 5.410156 3.148438 C 5.214844 3.160156 5.023438 3.179688 4.835938 3.210938 C 4.296875 3.554688 3.894531 4.121094 3.617188 4.855469 C 3.3125 5.664062 3.164062 6.671875 3.148438 7.800781 L 5.410156 7.800781 Z M 3.589844 3.589844 C 3.035156 3.839844 2.535156 4.179688 2.109375 4.597656 C 1.257812 5.429688 0.707031 6.554688 0.625 7.804688 L 2.539062 7.804688 C 2.554688 6.597656 2.714844 5.519531 3.046875 4.640625 C 3.191406 4.25 3.371094 3.898438 3.589844 3.589844 Z M 3.589844 3.589844" stroke-linecap="round"/>
</g>
</svg>