<svg xmlns="http://www.w3.org/2000/svg" xmlns:xlink="http://www.w3.org/1999/xlink" version="1.1" width="1000" height="1000" viewBox="0 0 1000 1000" xml:space="preserve">
<desc>Created with Fabric.js 3.5.0</desc>
<defs>
</defs>
<rect x="0" y="0" width="100%" height="100%" fill="rgba(255,255,255,0)"/>
<g transform="matrix(53.1705 0 0 53.1705 500 500)" id="682693">
<path style="stroke: none; stroke-width: 1; stroke-dasharray: none; stroke-linecap: butt; stroke-dashoffset: 0; stroke-linejoin: miter; stroke-miterlimit: 4; is-custom-font: none; font-file-url: none; fill: rgb(228,228,228); fill-rule: nonzero; opacity: 1;" vector-effect="non-scaling-stroke" transform=" translate(-10.0098, -9.9902)" d="M 18.261719 15.101562 L 17.578125 15.101562 L 11.640625 4.800781 C 11.460938 4.480469 11.121094 4.28125 10.761719 4.28125 C 10.398438 4.28125 10.058594 4.480469 9.878906 4.800781 L 8.480469 7.238281 C 8.28125 7.019531 8.019531 6.898438 7.71875 6.898438 C 7.339844 6.898438 7.019531 7.101562 6.839844 7.421875 L 5.101562 10.421875 L 2.359375 15.101562 L 1.761719 15.101562 C 1.601562 15.101562 1.460938 15.238281 1.460938 15.398438 C 1.460938 15.558594 1.601562 15.699219 1.761719 15.699219 L 18.261719 15.699219 C 18.421875 15.699219 18.558594 15.558594 18.558594 15.398438 C 18.558594 15.238281 18.421875 15.101562 18.261719 15.101562 Z M 8.941406 7.601562 L 10.378906 5.101562 C 10.460938 4.960938 10.601562 4.878906 10.738281 4.878906 C 10.878906 4.878906 11.039062 4.960938 11.101562 5.101562 L 16.878906 15.101562 L 13.019531 15.101562 L 8.941406 8.039062 C 8.859375 7.898438 8.859375 7.738281 8.941406 7.601562 Z M 7.320312 7.71875 C 7.398438 7.578125 7.539062 7.5 7.679688 7.5 C 7.839844 7.5 7.980469 7.578125 8.039062 7.71875 L 9.261719 9.839844 C 8.738281 9.71875 8.121094 9.800781 7.519531 10.339844 C 6.820312 10.980469 6.058594 10.679688 5.71875 10.480469 Z M 5.441406 11 C 5.738281 11.179688 6.160156 11.339844 6.601562 11.339844 C 7.039062 11.339844 7.5 11.199219 7.941406 10.800781 C 8.800781 10.019531 9.621094 10.621094 9.800781 10.78125 L 12.160156 14.878906 L 12.300781 15.121094 L 3.058594 15.121094 Z M 13.261719 12.460938 C 13.160156 12.460938 13.058594 12.398438 13 12.300781 L 11.421875 9.441406 C 11.339844 9.300781 11.398438 9.121094 11.539062 9.039062 C 11.679688 8.960938 11.859375 9.019531 11.941406 9.160156 L 13.519531 12 C 13.601562 12.140625 13.539062 12.320312 13.398438 12.398438 C 13.359375 12.441406 13.300781 12.460938 13.261719 12.460938 Z M 13.261719 12.460938" stroke-linecap="round"/>
</g>
</svg>