<?xml version="1.0" encoding="UTF-8"?>
<svg xmlns="http://www.w3.org/2000/svg" xmlns:xlink="http://www.w3.org/1999/xlink" width="210px" height="150px" viewBox="0 0 525 375" version="1.1">
<defs>
<filter id="alpha" filterUnits="objectBoundingBox" x="0%" y="0%" width="100%" height="100%">
  <feColorMatrix type="matrix" in="SourceGraphic" values="0 0 0 0 1 0 0 0 0 1 0 0 0 0 1 0 0 0 1 0"/>
</filter>
<mask id="mask0">
  <g filter="url(#alpha)">
<rect x="0" y="0" width="525" height="375" style="fill:rgb(0%,0%,0%);fill-opacity:0.45098;stroke:none;"/>
  </g>
</mask>
<clipPath id="clip1">
  <rect x="0" y="0" width="525" height="375"/>
</clipPath>
<g id="surface5" clip-path="url(#clip1)">
<path style=" stroke:none;fill-rule:nonzero;fill:rgb(80%,80%,80%);fill-opacity:1;" d="M 360.960938 168.363281 C 358.601562 157.519531 349.453125 147.742188 346.714844 147.132812 C 347.894531 120.40625 243.195312 134.523438 211.675781 141.902344 C 243.484375 134.8125 335.738281 124.988281 334.554688 151.710938 C 337.296875 152.320312 350.324219 160.601562 352.6875 171.445312 C 357.679688 194.382812 311.226562 196.1875 255.566406 197.691406 C 311.230469 196.1875 365.957031 191.300781 360.960938 168.359375 Z M 360.960938 168.363281 "/>
</g>
<linearGradient id="linear0" gradientUnits="userSpaceOnUse" x1="0" y1="828.92" x2="0" y2="844.84" >
<stop offset="0" style="stop-color:rgb(29.019608%,29.019608%,29.019608%);stop-opacity:1;"/>
<stop offset="1" style="stop-color:rgb(100%,100%,100%);stop-opacity:1;"/>
</linearGradient>
<linearGradient id="linear1" gradientUnits="userSpaceOnUse" x1="0" y1="828.92" x2="0" y2="844.84" >
<stop offset="0" style="stop-color:rgb(29.019608%,29.019608%,29.019608%);stop-opacity:1;"/>
<stop offset="1" style="stop-color:rgb(100%,100%,100%);stop-opacity:1;"/>
</linearGradient>
<linearGradient id="linear2" gradientUnits="userSpaceOnUse" x1="0" y1="828.92" x2="0" y2="844.84" >
<stop offset="0" style="stop-color:rgb(29.019608%,29.019608%,29.019608%);stop-opacity:1;"/>
<stop offset="1" style="stop-color:rgb(100%,100%,100%);stop-opacity:1;"/>
</linearGradient>
<linearGradient id="linear3" gradientUnits="userSpaceOnUse" x1="0" y1="828.92" x2="0" y2="844.84" >
<stop offset="0" style="stop-color:rgb(29.019608%,29.019608%,29.019608%);stop-opacity:1;"/>
<stop offset="1" style="stop-color:rgb(100%,100%,100%);stop-opacity:1;"/>
</linearGradient>
</defs>
<g id="surface1">
<path style=" stroke:none;fill-rule:nonzero;fill:rgb(83.529412%,89.803922%,100%);fill-opacity:1;" d="M 427.445312 187.472656 C 427.445312 279.480469 352.859375 354.0625 260.855469 354.0625 C 168.851562 354.0625 94.265625 279.476562 94.265625 187.472656 C 94.265625 95.46875 168.851562 20.882812 260.855469 20.882812 C 352.859375 20.882812 427.445312 95.46875 427.445312 187.472656 Z M 427.445312 187.472656 "/>
<path style=" stroke:none;fill-rule:nonzero;fill:rgb(66.666667%,80%,100%);fill-opacity:1;" d="M 154.917969 263.421875 L 162.40625 272.058594 L 177.164062 237.085938 L 196.714844 250.757812 L 216.9375 226.449219 L 228.398438 238.097656 L 239.855469 222.90625 L 245.25 233.035156 L 251.992188 220.375 L 256.035156 231.007812 L 265.472656 203.660156 L 269.515625 226.957031 L 275.585938 218.347656 L 282.324219 229.996094 L 295.808594 228.984375 L 298.503906 238.097656 L 305.246094 232.019531 L 314.683594 244.683594 L 320.074219 236.578125 C 320.074219 236.578125 324.792969 254.808594 328.839844 256.332031 C 332.882812 257.851562 340.300781 252.277344 340.300781 252.277344 L 346.367188 260.382812 L 359.175781 277.09375 L 368.613281 251.265625 L 380.746094 274.5625 L 394.773438 286.09375 C 319.785156 382.542969 189.84375 366.972656 131.535156 292.898438 Z M 154.917969 263.421875 "/>
<path style=" stroke:none;fill-rule:nonzero;fill:rgb(33.333333%,60%,100%);fill-opacity:1;" d="M 345.324219 294.925781 L 339.585938 300.429688 L 328.277344 278.160156 L 313.296875 286.867188 L 297.800781 271.386719 L 289.015625 278.804688 L 280.234375 269.132812 L 276.101562 275.582031 L 270.9375 267.519531 L 267.835938 274.289062 L 260.605469 256.878906 L 257.503906 271.710938 L 252.855469 266.230469 L 247.691406 273.648438 L 241.828125 260.410156 L 235.292969 278.804688 L 230.125 274.9375 L 224.519531 288.683594 L 218.761719 277.839844 C 218.761719 277.839844 214.332031 287.414062 210.421875 303.820312 C 209.667969 306.976562 203.265625 282.148438 203.265625 282.148438 L 196.515625 308.914062 L 181.566406 287.1875 L 165.769531 316.644531 L 153.394531 313.425781 C 219.390625 372.804688 315.304688 360.453125 365.679688 314.914062 L 351.953125 318.015625 Z M 345.324219 294.925781 "/>
<path style=" stroke:none;fill-rule:nonzero;fill:rgb(90.196078%,90.196078%,90.196078%);fill-opacity:1;" d="M 120.023438 94.804688 C 133.398438 113.046875 148.371094 133.578125 155.066406 156.273438 L 162.53125 151.964844 C 155.496094 130.140625 139.253906 110.886719 120.023438 94.808594 Z M 120.023438 94.804688 "/>
<use xlink:href="#surface5" mask="url(#mask0)"/>
<path style="fill-rule:nonzero;fill:rgb(97.647059%,97.647059%,97.647059%);fill-opacity:1;stroke-width:0.4029;stroke-linecap:butt;stroke-linejoin:miter;stroke:rgb(37.254902%,55.294118%,82.745098%);stroke-opacity:1;stroke-miterlimit:4;" d="M -1487.899919 723.811035 C -1461.736852 710.492097 -1360.381272 701.718917 -1361.390241 720.587188 C -1359.051266 721.018833 -1347.086614 726.630214 -1345.071372 734.286513 C -1338.496884 759.276045 -1472.83282 759.327303 -1506.422874 748.617118 C -1515.11512 717.730239 -1517.416326 714.304059 -1526.64543 684.779559 C -1519.89019 683.00442 -1502.807849 698.427626 -1492.329673 723.608701 C -1489.712827 725.221973 -1487.899919 723.811035 -1487.899919 723.811035 Z M -1487.899919 723.811035 " transform="matrix(1.44795,0,0,1.44795,2325.975,-897.3)"/>
<path style=" stroke:none;fill-rule:nonzero;fill:rgb(33.333333%,60%,100%);fill-opacity:1;" d="M 169.976562 150.914062 C 169.976562 150.914062 161.769531 155.820312 158.894531 157.6875 C 146.144531 165.972656 145.996094 196.269531 145.996094 196.269531 C 133.410156 151.546875 128.867188 136.96875 115.503906 94.21875 C 125.285156 91.648438 150.019531 113.980469 165.191406 150.441406 C 168.078125 152.050781 169.976562 150.914062 169.976562 150.914062 Z M 169.976562 150.914062 "/>
<path style=" stroke:none;fill-rule:nonzero;fill:rgb(33.333333%,60%,100%);fill-opacity:1;" d="M 378.773438 166.625 C 375.855469 155.539062 358.53125 147.054688 355.144531 146.425781 C 356.601562 119.109375 209.480469 131.445312 171.601562 150.730469 C 209.484375 131.445312 352.625 121.28125 351.164062 148.597656 C 354.546875 149.222656 371.148438 155.179688 374.066406 166.261719 C 380.238281 189.710938 317.316406 195.066406 248.539062 196.605469 C 317.316406 195.070312 384.941406 190.074219 378.773438 166.625 Z M 378.773438 166.625 "/>
<path style=" stroke:none;fill-rule:nonzero;fill:rgb(33.333333%,60%,100%);fill-opacity:1;" d="M 332.292969 190.574219 C 349.914062 188.644531 368.820312 185.132812 376.160156 171.679688 L 502.636719 169.878906 C 502.636719 169.878906 500.375 184.109375 472.867188 184.832031 C 419.558594 189.515625 321.078125 192.085938 268.777344 196.058594 C 253.636719 196.238281 257.972656 196.207031 249.855469 196.363281 C 247.734375 196.402344 245.410156 196.429688 243.257812 196.292969 C 174.121094 191.855469 89.28125 179.304688 22.546875 172.523438 C 22.546875 172.523438 18.253906 161.691406 89.875 163.835938 C 130.40625 165.050781 284.625 171.800781 284.625 171.800781 C 284.625 171.800781 307.414062 172.898438 307.972656 179.222656 C 308.746094 187.957031 244.011719 196.320312 250.082031 196.324219 C 260.058594 196.332031 328.609375 194.746094 332.285156 190.574219 Z M 332.292969 190.574219 "/>
<path style=" stroke:none;fill-rule:nonzero;fill:rgb(33.333333%,60%,100%);fill-opacity:1;" d="M 191.265625 150.292969 C 190.085938 150.425781 189.234375 150.949219 189.253906 151.484375 C 189.324219 152.011719 190.34375 152.386719 191.527344 152.316406 C 192.714844 152.242188 193.613281 151.699219 193.539062 151.109375 C 193.464844 150.519531 192.449219 150.15625 191.265625 150.292969 M 197.003906 149.636719 C 195.824219 149.773438 194.925781 150.367188 195.003906 150.980469 C 195.078125 151.589844 196.105469 152.035156 197.289062 151.964844 C 198.476562 151.890625 199.371094 151.28125 199.289062 150.605469 C 199.207031 149.929688 198.183594 149.503906 197.003906 149.636719 M 202.738281 148.984375 C 201.558594 149.117188 200.667969 149.78125 200.753906 150.476562 C 200.835938 151.171875 201.867188 151.6875 203.054688 151.613281 C 204.238281 151.542969 205.128906 150.859375 205.039062 150.101562 C 204.949219 149.34375 203.921875 148.847656 202.738281 148.984375 M 208.476562 148.328125 C 207.296875 148.464844 206.410156 149.195312 206.503906 149.972656 C 206.59375 150.753906 207.628906 151.335938 208.816406 151.265625 C 210 151.191406 210.882812 150.441406 210.789062 149.597656 C 210.691406 148.757812 209.65625 148.195312 208.476562 148.328125 M 214.214844 147.675781 C 213.03125 147.808594 212.152344 148.609375 212.25 149.46875 C 212.351562 150.332031 213.390625 150.984375 214.578125 150.914062 C 215.761719 150.839844 216.640625 150.019531 216.535156 149.09375 C 216.433594 148.167969 215.394531 147.539062 214.214844 147.675781 M 219.914062 147.023438 C 218.734375 147.160156 217.859375 148.023438 217.964844 148.96875 C 218.070312 149.917969 219.117188 150.636719 220.304688 150.566406 C 221.492188 150.492188 222.359375 149.605469 222.25 148.59375 C 222.140625 147.585938 221.09375 146.890625 219.914062 147.023438 M 225.652344 146.371094 C 224.46875 146.503906 223.601562 147.4375 223.714844 148.46875 C 223.828125 149.496094 224.878906 150.285156 226.066406 150.214844 C 227.253906 150.140625 228.117188 149.183594 228 148.09375 C 227.882812 147 226.832031 146.238281 225.652344 146.371094 M 231.386719 145.71875 C 230.207031 145.851562 229.34375 146.851562 229.464844 147.964844 C 229.582031 149.078125 230.644531 149.9375 231.828125 149.863281 C 233.015625 149.792969 233.875 148.765625 233.75 147.589844 C 233.625 146.410156 232.566406 145.582031 231.386719 145.71875 M 237.125 145.0625 C 235.941406 145.199219 235.085938 146.261719 235.214844 147.460938 C 235.339844 148.65625 236.40625 149.585938 237.589844 149.511719 C 238.777344 149.441406 239.628906 148.347656 239.5 147.085938 C 239.367188 145.824219 238.304688 144.929688 237.125 145.0625 M 242.859375 144.410156 C 241.679688 144.542969 240.828125 145.675781 240.964844 146.957031 C 241.097656 148.238281 242.167969 149.234375 243.351562 149.164062 C 244.539062 149.089844 245.386719 147.925781 245.25 146.582031 C 245.109375 145.238281 244.042969 144.273438 242.859375 144.410156 M 248.5625 143.757812 C 247.382812 143.894531 246.535156 145.09375 246.675781 146.457031 C 246.816406 147.820312 247.894531 148.886719 249.078125 148.8125 C 250.265625 148.742188 251.109375 147.507812 250.960938 146.082031 C 250.816406 144.652344 249.742188 143.625 248.5625 143.757812 M 254.296875 143.105469 C 253.117188 143.238281 252.277344 144.503906 252.425781 145.953125 C 252.574219 147.402344 253.65625 148.535156 254.84375 148.464844 C 256.027344 148.390625 256.863281 147.089844 256.710938 145.578125 C 256.558594 144.066406 255.480469 142.96875 254.296875 143.105469 M 260.035156 142.449219 C 258.855469 142.585938 258.019531 143.917969 258.175781 145.449219 C 258.328125 146.984375 259.417969 148.183594 260.605469 148.113281 C 261.792969 148.039062 262.621094 146.671875 262.460938 145.074219 C 262.300781 143.480469 261.214844 142.316406 260.035156 142.449219 M 265.773438 141.796875 C 264.589844 141.929688 263.761719 143.332031 263.925781 144.945312 C 264.085938 146.5625 265.179688 147.835938 266.367188 147.761719 C 267.554688 147.691406 268.378906 146.25 268.210938 144.570312 C 268.042969 142.890625 266.953125 141.660156 265.773438 141.796875 M 271.507812 141.140625 C 270.328125 141.277344 269.503906 142.742188 269.675781 144.445312 C 269.84375 146.144531 270.945312 147.484375 272.128906 147.410156 C 273.316406 147.339844 274.132812 145.832031 273.960938 144.070312 C 273.785156 142.304688 272.6875 141.007812 271.507812 141.140625 M 277.210938 140.492188 C 276.027344 140.625 275.210938 142.160156 275.386719 143.945312 C 275.5625 145.726562 276.671875 147.136719 277.855469 147.0625 C 279.042969 146.992188 279.855469 145.414062 279.671875 143.566406 C 279.492188 141.722656 278.390625 140.359375 277.210938 140.492188 M 282.945312 139.839844 C 281.765625 139.972656 280.953125 141.574219 281.136719 143.441406 C 281.320312 145.308594 282.433594 146.785156 283.617188 146.710938 C 284.804688 146.640625 285.609375 144.996094 285.421875 143.066406 C 285.234375 141.132812 284.125 139.703125 282.945312 139.839844 M 288.683594 139.183594 C 287.5 139.320312 286.695312 140.984375 286.886719 142.9375 C 287.078125 144.886719 288.195312 146.433594 289.382812 146.363281 C 290.566406 146.289062 291.367188 144.574219 291.171875 142.5625 C 290.976562 140.546875 289.863281 139.050781 288.683594 139.183594 M 294.417969 138.53125 C 293.238281 138.664062 292.4375 140.398438 292.636719 142.433594 C 292.832031 144.46875 293.957031 146.082031 295.144531 146.011719 C 296.328125 145.9375 297.125 144.15625 296.921875 142.058594 C 296.71875 139.960938 295.597656 138.394531 294.417969 138.53125 M 300.15625 137.875 C 298.972656 138.011719 298.179688 139.8125 298.386719 141.929688 C 298.589844 144.050781 299.71875 145.734375 300.90625 145.660156 C 302.089844 145.589844 302.878906 143.738281 302.671875 141.554688 C 302.460938 139.375 301.335938 137.742188 300.15625 137.875 M 305.855469 137.226562 C 304.675781 137.359375 303.886719 139.226562 304.097656 141.429688 C 304.3125 143.632812 305.445312 145.386719 306.632812 145.3125 C 307.816406 145.242188 308.601562 143.320312 308.382812 141.054688 C 308.167969 138.789062 307.035156 137.089844 305.855469 137.226562 "/>
<path style=" stroke:none;fill-rule:nonzero;fill:rgb(33.333333%,60%,100%);fill-opacity:1;" d="M 235.546875 162.269531 C 234.570312 162.371094 233.859375 162.800781 233.875 163.238281 C 233.929688 163.675781 234.765625 163.996094 235.746094 163.945312 C 236.726562 163.894531 237.472656 163.453125 237.414062 162.964844 C 237.359375 162.476562 236.523438 162.167969 235.546875 162.269531 M 240.289062 161.777344 C 239.3125 161.878906 238.566406 162.363281 238.625 162.871094 C 238.683594 163.375 239.527344 163.75 240.507812 163.699219 C 241.484375 163.652344 242.230469 163.152344 242.167969 162.59375 C 242.105469 162.039062 241.265625 161.675781 240.289062 161.777344 M 245.03125 161.28125 C 244.054688 161.382812 243.3125 161.925781 243.378906 162.5 C 243.441406 163.074219 244.289062 163.507812 245.265625 163.457031 C 246.246094 163.40625 246.984375 162.851562 246.917969 162.226562 C 246.851562 161.597656 246.007812 161.179688 245.03125 161.28125 M 249.773438 160.789062 C 248.796875 160.890625 248.058594 161.488281 248.128906 162.128906 C 248.199219 162.773438 249.046875 163.265625 250.027344 163.214844 C 251.007812 163.164062 251.742188 162.550781 251.671875 161.855469 C 251.597656 161.160156 250.75 160.6875 249.773438 160.789062 M 254.515625 160.292969 C 253.539062 160.398438 252.804688 161.046875 252.878906 161.761719 C 252.953125 162.476562 253.808594 163.023438 254.789062 162.972656 C 255.769531 162.921875 256.5 162.25 256.421875 161.484375 C 256.34375 160.71875 255.492188 160.191406 254.515625 160.292969 M 259.226562 159.804688 C 258.25 159.90625 257.523438 160.613281 257.601562 161.394531 C 257.683594 162.175781 258.539062 162.78125 259.519531 162.730469 C 260.5 162.679688 261.226562 161.953125 261.144531 161.117188 C 261.0625 160.285156 260.203125 159.703125 259.226562 159.804688 M 263.96875 159.308594 C 262.992188 159.410156 262.269531 160.171875 262.355469 161.023438 C 262.4375 161.875 263.300781 162.535156 264.28125 162.488281 C 265.261719 162.4375 265.984375 161.652344 265.894531 160.75 C 265.808594 159.847656 264.945312 159.207031 263.96875 159.308594 M 268.710938 158.816406 C 267.734375 158.917969 267.015625 159.734375 267.105469 160.65625 C 267.195312 161.574219 268.0625 162.292969 269.042969 162.242188 C 270.023438 162.195312 270.738281 161.351562 270.648438 160.378906 C 270.550781 159.40625 269.6875 158.714844 268.710938 158.816406 M 273.453125 158.320312 C 272.476562 158.421875 271.761719 159.296875 271.855469 160.285156 C 271.953125 161.277344 272.824219 162.050781 273.804688 162 C 274.785156 161.949219 275.496094 161.054688 275.398438 160.011719 C 275.300781 158.96875 274.429688 158.21875 273.453125 158.320312 M 278.195312 157.828125 C 277.21875 157.929688 276.507812 158.859375 276.609375 159.917969 C 276.707031 160.976562 277.585938 161.808594 278.5625 161.757812 C 279.542969 161.707031 280.253906 160.753906 280.148438 159.640625 C 280.046875 158.53125 279.171875 157.726562 278.195312 157.828125 M 282.910156 157.335938 C 281.933594 157.4375 281.226562 158.421875 281.328125 159.550781 C 281.433594 160.679688 282.316406 161.566406 283.296875 161.515625 C 284.277344 161.464844 284.980469 160.453125 284.871094 159.273438 C 284.761719 158.09375 283.882812 157.234375 282.910156 157.335938 M 287.652344 156.84375 C 286.675781 156.945312 285.972656 157.984375 286.082031 159.179688 C 286.191406 160.378906 287.078125 161.320312 288.058594 161.273438 C 289.035156 161.222656 289.738281 160.15625 289.625 158.90625 C 289.507812 157.65625 288.625 156.742188 287.652344 156.84375 M 292.394531 156.347656 C 291.417969 156.449219 290.71875 157.542969 290.832031 158.8125 C 290.949219 160.078125 291.839844 161.078125 292.816406 161.027344 C 293.796875 160.980469 294.496094 159.855469 294.375 158.535156 C 294.253906 157.214844 293.367188 156.246094 292.394531 156.347656 M 297.136719 155.855469 C 296.160156 155.957031 295.464844 157.105469 295.585938 158.441406 C 295.707031 159.777344 296.597656 160.835938 297.578125 160.785156 C 298.558594 160.734375 299.25 159.554688 299.125 158.167969 C 299 156.777344 298.109375 155.753906 297.136719 155.855469 M 301.878906 155.359375 C 300.902344 155.460938 300.210938 156.667969 300.335938 158.070312 C 300.460938 159.476562 301.359375 160.59375 302.339844 160.542969 C 303.320312 160.492188 304.007812 159.253906 303.878906 157.796875 C 303.75 156.339844 302.851562 155.257812 301.878906 155.359375 M 306.589844 154.871094 C 305.613281 154.972656 304.925781 156.230469 305.058594 157.703125 C 305.1875 159.179688 306.089844 160.351562 307.070312 160.300781 C 308.050781 160.25 308.734375 158.957031 308.601562 157.429688 C 308.464844 155.902344 307.566406 154.769531 306.589844 154.871094 M 311.332031 154.375 C 310.355469 154.476562 309.671875 155.792969 309.808594 157.335938 C 309.949219 158.878906 310.851562 160.109375 311.832031 160.058594 C 312.8125 160.007812 313.492188 158.65625 313.351562 157.0625 C 313.210938 155.464844 312.308594 154.273438 311.332031 154.375 M 316.074219 153.882812 C 315.097656 153.984375 314.417969 155.355469 314.5625 156.964844 C 314.703125 158.578125 315.613281 159.863281 316.59375 159.816406 C 317.574219 159.765625 318.25 158.355469 318.101562 156.691406 C 317.957031 155.027344 317.050781 153.78125 316.074219 153.882812 M 320.816406 153.386719 C 319.839844 153.488281 319.164062 154.914062 319.3125 156.597656 C 319.460938 158.277344 320.375 159.621094 321.355469 159.570312 C 322.335938 159.523438 323.003906 158.054688 322.855469 156.320312 C 322.703125 154.589844 321.792969 153.285156 320.816406 153.386719 M 325.558594 152.894531 C 324.582031 152.996094 323.914062 154.476562 324.0625 156.226562 C 324.21875 157.980469 325.136719 159.378906 326.113281 159.328125 C 327.09375 159.277344 327.761719 157.757812 327.605469 155.953125 C 327.449219 154.148438 326.535156 152.792969 325.558594 152.894531 M 330.269531 152.402344 C 329.296875 152.503906 328.628906 154.042969 328.785156 155.859375 C 328.945312 157.679688 329.867188 159.136719 330.847656 159.085938 C 331.828125 159.039062 332.488281 157.457031 332.328125 155.585938 C 332.167969 153.714844 331.246094 152.300781 330.269531 152.402344 "/>
<path style=" stroke:none;fill-rule:nonzero;fill:rgb(33.333333%,60%,100%);fill-opacity:1;" d="M 343.015625 155.066406 C 342.039062 155.128906 341.359375 155.957031 341.492188 156.925781 C 341.632812 157.894531 342.535156 158.667969 343.515625 158.636719 C 344.496094 158.605469 345.175781 157.753906 345.035156 156.753906 C 344.894531 155.75 343.992188 155 343.015625 155.066406 M 347.757812 154.753906 C 346.78125 154.816406 346.105469 155.679688 346.246094 156.691406 C 346.386719 157.707031 347.296875 158.515625 348.277344 158.484375 C 349.257812 158.453125 349.933594 157.566406 349.785156 156.519531 C 349.640625 155.472656 348.734375 154.691406 347.757812 154.753906 M 352.5 154.445312 C 351.523438 154.507812 350.851562 155.402344 350.996094 156.460938 C 351.144531 157.519531 352.058594 158.363281 353.039062 158.332031 C 354.019531 158.300781 354.6875 157.378906 354.539062 156.289062 C 354.386719 155.199219 353.476562 154.378906 352.5 154.445312 M 357.242188 154.132812 C 356.265625 154.195312 355.597656 155.128906 355.75 156.230469 C 355.902344 157.328125 356.820312 158.210938 357.800781 158.179688 C 358.777344 158.144531 359.445312 157.1875 359.289062 156.054688 C 359.132812 154.921875 358.21875 154.070312 357.242188 154.132812 M 361.957031 153.824219 C 360.980469 153.886719 360.3125 154.855469 360.46875 155.996094 C 360.628906 157.140625 361.550781 158.058594 362.53125 158.027344 C 363.511719 157.996094 364.171875 157 364.011719 155.824219 C 363.851562 154.648438 362.929688 153.761719 361.957031 153.824219 "/>
<path style=" stroke:none;fill-rule:nonzero;fill:rgb(90.196078%,90.196078%,90.196078%);fill-opacity:1;" d="M 296.382812 176.660156 C 297.050781 177.621094 298.679688 178.175781 296.382812 180.394531 C 242.132812 172.917969 183.335938 172.261719 126.335938 168.902344 C 183.386719 171.257812 244.757812 170.910156 296.382812 176.660156 Z M 296.382812 176.660156 "/>
<path style=" stroke:none;fill-rule:nonzero;fill:rgb(90.196078%,90.196078%,90.196078%);fill-opacity:1;" d="M 380.507812 175.660156 C 379.972656 176.578125 379.007812 177.039062 379.800781 179.359375 C 409.9375 174.828125 444.433594 174.453125 475.242188 174.144531 C 444.59375 173.453125 408.925781 172.703125 380.507812 175.660156 Z M 380.507812 175.660156 "/>
<path style="fill-rule:nonzero;fill:url(#linear0);stroke-width:0.8649;stroke-linecap:butt;stroke-linejoin:miter;stroke:rgb(33.333333%,33.333333%,33.333333%);stroke-opacity:1;stroke-miterlimit:4;" d="M -1738.098996 836.658711 C -1738.098996 841.601867 -1739.343089 845.865603 -1749.039164 845.865603 C -1758.73222 845.865603 -1766.592351 841.858536 -1766.592351 836.91538 C -1766.592351 831.972224 -1758.73222 827.965157 -1749.039164 827.965157 C -1739.343089 827.965157 -1738.098996 831.718574 -1738.098996 836.658711 Z M -1738.098996 836.658711 " transform="matrix(1.293613,0,0,1.293613,2394.497786,-894.843842)"/>
<path style="fill-rule:nonzero;fill:rgb(29.019608%,29.019608%,29.019608%);fill-opacity:1;stroke-width:1.2829;stroke-linecap:butt;stroke-linejoin:miter;stroke:rgb(83.529412%,83.529412%,83.529412%);stroke-opacity:1;stroke-miterlimit:4;" d="M -1729.501639 837.110127 C -1729.501639 841.944195 -1733.415975 845.859158 -1738.250074 845.859158 C -1743.084173 845.859158 -1746.99851 841.944195 -1746.99851 837.110127 C -1746.99851 832.27606 -1743.084173 828.361096 -1738.250074 828.361096 C -1733.415975 828.361096 -1729.501639 832.27606 -1729.501639 837.110127 Z M -1729.501639 837.110127 " transform="matrix(0.91311,0,0,1.113516,1724.09578,-744.280224)"/>
<path style="fill-rule:nonzero;fill:url(#linear1);stroke-width:0.8649;stroke-linecap:butt;stroke-linejoin:miter;stroke:rgb(33.333333%,33.333333%,33.333333%);stroke-opacity:1;stroke-miterlimit:4;" d="M -1738.09993 836.660342 C -1738.09993 841.602646 -1739.341829 845.864561 -1749.036737 845.864561 C -1758.734175 845.864561 -1766.592792 841.858108 -1766.592792 836.915804 C -1766.592792 831.9735 -1758.734175 827.967047 -1749.036737 827.967047 C -1739.341829 827.967047 -1738.09993 831.718038 -1738.09993 836.660342 Z M -1738.09993 836.660342 " transform="matrix(1.544383,0,0,1.544383,2913.683426,-1099.839246)"/>
<path style="fill-rule:nonzero;fill:rgb(29.019608%,29.019608%,29.019608%);fill-opacity:1;stroke-width:1.2829;stroke-linecap:butt;stroke-linejoin:miter;stroke:rgb(83.529412%,83.529412%,83.529412%);stroke-opacity:1;stroke-miterlimit:4;" d="M -1729.501124 837.11146 C -1729.501124 841.94221 -1733.417699 845.859113 -1738.251606 845.859113 C -1743.081929 845.859113 -1746.998504 841.94221 -1746.998504 837.11146 C -1746.998504 832.277772 -1743.081929 828.360868 -1738.251606 828.360868 C -1733.417699 828.360868 -1729.501124 832.277772 -1729.501124 837.11146 Z M -1729.501124 837.11146 " transform="matrix(1.090119,0,0,1.329374,2113.322136,-920.088454)"/>
<path style="fill-rule:nonzero;fill:url(#linear2);stroke-width:0.8649;stroke-linecap:butt;stroke-linejoin:miter;stroke:rgb(33.333333%,33.333333%,33.333333%);stroke-opacity:1;stroke-miterlimit:4;" d="M -1738.098904 836.658467 C -1738.098904 841.604499 -1739.341753 845.865696 -1749.03815 845.865696 C -1758.734547 845.865696 -1766.593846 841.858141 -1766.593846 836.915733 C -1766.593846 831.973324 -1758.734547 827.96577 -1749.03815 827.96577 C -1739.341753 827.96577 -1738.098904 831.716058 -1738.098904 836.658467 Z M -1738.098904 836.658467 " transform="matrix(1.078042,0,0,1.078042,2307.90024,-712.671896)"/>
<path style="fill-rule:nonzero;fill:rgb(29.019608%,29.019608%,29.019608%);fill-opacity:1;stroke-width:1.2829;stroke-linecap:butt;stroke-linejoin:miter;stroke:rgb(83.529412%,83.529412%,83.529412%);stroke-opacity:1;stroke-miterlimit:4;" d="M -1729.502326 837.111939 C -1729.502326 841.944462 -1733.419116 845.859312 -1738.249651 845.859312 C -1743.080187 845.859312 -1747.00211 841.944462 -1747.00211 837.111939 C -1747.00211 832.279415 -1743.080187 828.360356 -1738.249651 828.360356 C -1733.419116 828.360356 -1729.502326 832.279415 -1729.502326 837.111939 Z M -1729.502326 837.111939 " transform="matrix(0.760947,0,0,0.927957,1749.215643,-587.198562)"/>
<path style="fill-rule:nonzero;fill:url(#linear3);stroke-width:0.8649;stroke-linecap:butt;stroke-linejoin:miter;stroke:rgb(33.333333%,33.333333%,33.333333%);stroke-opacity:1;stroke-miterlimit:4;" d="M -1738.101954 836.660501 C -1738.101954 841.604777 -1739.344495 845.867381 -1749.038899 845.867381 C -1758.733303 845.867381 -1766.594097 841.859325 -1766.594097 836.915049 C -1766.594097 831.975088 -1758.733303 827.967033 -1749.038899 827.967033 C -1739.344495 827.967033 -1738.101954 831.716226 -1738.101954 836.660501 Z M -1738.101954 836.660501 " transform="matrix(0.905403,0,0,0.905403,2051.776709,-571.018947)"/>
<path style="fill-rule:nonzero;fill:rgb(29.019608%,29.019608%,29.019608%);fill-opacity:1;stroke-width:1.2829;stroke-linecap:butt;stroke-linejoin:miter;stroke:rgb(83.529412%,83.529412%,83.529412%);stroke-opacity:1;stroke-miterlimit:4;" d="M -1729.500511 837.110752 C -1729.500511 841.942485 -1733.418449 845.862003 -1738.247108 845.862003 C -1743.08188 845.862003 -1746.999817 841.942485 -1746.999817 837.110752 C -1746.999817 832.279019 -1743.08188 828.359502 -1738.247108 828.359502 C -1733.418449 828.359502 -1729.500511 832.279019 -1729.500511 837.110752 Z M -1729.500511 837.110752 " transform="matrix(0.639088,0,0,0.779353,1582.560588,-465.639076)"/>
</g>
</svg>
